<?xml version="1.0" encoding="utf-8"?>
<!-- Generator: Adobe Illustrator 16.0.0, SVG Export Plug-In . SVG Version: 6.00 Build 0)  -->
<!DOCTYPE svg PUBLIC "-//W3C//DTD SVG 1.1//EN" "http://www.w3.org/Graphics/SVG/1.1/DTD/svg11.dtd">
<svg version="1.1" id="Layer_1" xmlns="http://www.w3.org/2000/svg" xmlns:xlink="http://www.w3.org/1999/xlink" x="0px" y="0px"
	 width="174.007px" height="110.203px" viewBox="0 0 174.007 110.203" enable-background="new 0 0 174.007 110.203"
	 xml:space="preserve">
<g>
	<path fill="#353A3D" d="M37.337,92.875c0.034,0.061,0.04,0.106,0.065,0.131c1.222,1.035,2.23,2.254,3.196,3.511
		c0.169,0.226,0.341,0.332,0.625,0.356c1.243,0.112,2.255,1.203,2.276,2.494c0.026,1.775,0.029,3.551,0,5.334
		c-0.028,1.422-1.149,2.514-2.575,2.526c-3.374,0.01-6.754,0-10.132,0c-0.074,0-0.145-0.019-0.261-0.028c0-0.203,0-0.394,0-0.582
		c0-0.574-0.006-1.152,0.006-1.726c0-0.164,0.025-0.334,0.1-0.479c0.764-1.547,1.538-3.088,2.312-4.635
		c0.025-0.055,0.063-0.104,0.133-0.156c0.052,0.422,0.043,0.834,0.046,1.25c0,0.41,0,0.818,0,1.228c0,0.426,0,0.844,0,1.264
		c0,0.406,0,0.815,0,1.24c2.604,0,5.17,0,7.756,0c0-1.713,0-3.41,0-5.166c-1.147-0.006-2.294-0.004-3.443-0.004
		c-1.14,0-2.275,0-3.414,0c-1.148,0-2.295,0-3.486,0c0-0.729,0-1.429,0-2.177c-0.158,0.078-0.264,0.138-0.377,0.19
		c-0.242,0.091-0.393,0.04-0.494-0.192c-0.063-0.156-0.125-0.321-0.123-0.479c0.007-0.526,0.038-1.045,0.077-1.565
		c0.022-0.316,0.092-0.625,0.037-0.988c-0.637,0.055-1.227,0.215-1.868,0.383c0.15,0.348,0.286,0.656,0.442,1.031
		c-0.491-0.146-0.764-0.535-1.25-0.693c0.015,0.164-0.006,0.294,0.045,0.395c0.141,0.281,0.296,0.563,0.472,0.818
		c0.231,0.33,0.501,0.621,0.597,1.023c0.029,0.117,0.109,0.242-0.05,0.373c-0.075-0.043-0.166-0.082-0.239-0.143
		c-0.409-0.348-0.82-0.693-1.221-1.058c-0.162-0.151-0.308-0.188-0.513-0.085c-0.195,0.1-0.408,0.15-0.607,0.234
		c-0.31,0.135-0.325,0.17-0.286,0.494c0.065,0.58,0.125,1.17,0.182,1.748c0,0.051-0.012,0.102-0.022,0.162
		c-0.171-0.025-0.203-0.162-0.278-0.256c-0.193-0.262-0.373-0.545-0.603-0.781c-0.227-0.234-0.522-0.289-0.85-0.188
		c-0.214,0.06-0.286,0.169-0.287,0.378c-0.019,0.621,0.048,1.232,0.251,1.814c0.267,0.772,0.579,1.532,0.891,2.28
		c0.14,0.332,0.316,0.644,0.478,0.961c0.1,0.193,0.038,0.312-0.184,0.404c-0.058-0.104-0.123-0.199-0.163-0.298
		c-0.522-1.25-1.057-2.497-1.362-3.823c-0.041-0.196-0.145-0.278-0.336-0.297c-0.478-0.04-0.884-0.238-1.216-0.589
		c-0.415-0.438-0.965-0.545-1.531-0.618c-0.289-0.043-0.576-0.095-0.868-0.144c-0.311-0.055-0.58-0.195-0.821-0.392
		c-0.047-0.04-0.107-0.065-0.153-0.095c-0.329,0.344-0.4,0.777-0.181,1.248c0.188,0.383,0.388,0.748,0.595,1.113
		c0.118,0.201,0.134,0.373,0.031,0.582c-0.113,0.237-0.204,0.494-0.322,0.734c-0.061,0.139-0.156,0.25-0.232,0.383
		c-0.024-0.007-0.055-0.014-0.084-0.021c0.029-0.291,0.076-0.582,0.086-0.873c0.015-0.303,0.005-0.604,0.005-0.947
		c-0.097,0.02-0.188,0.02-0.256,0.055c-0.554,0.293-0.91,0.775-1.221,1.299c-0.272,0.461-0.534,0.931-0.81,1.392
		c-0.059,0.097-0.146,0.183-0.27,0.336c-0.07-0.36,0.004-0.621,0.074-0.864c0.258-0.898,0.755-1.65,1.502-2.216
		c0.23-0.178,0.324-0.364,0.326-0.646c0.004-0.563,0.04-1.125,0.057-1.689c0-0.137-0.013-0.294-0.081-0.398
		c-0.509-0.845-1.017-1.685-1.554-2.51c-0.265-0.406-0.611-0.753-1.026-1.023c-0.347-0.221-0.729-0.289-1.127-0.334
		c-0.227-0.021-0.396,0.094-0.545,0.236c-0.62,0.606-1.247,1.211-1.867,1.823c-0.706,0.703-1.416,1.408-2.106,2.125
		c-0.32,0.332-0.605,0.692-0.906,1.037c-0.026,0.043-0.031,0.097-0.06,0.172c0.193,0.045,0.374,0.085,0.625,0.146
		c-0.313,0.141-0.565,0.228-0.787,0.359c-0.222,0.121-0.408,0.285-0.689,0.494c0.036-0.234,0.051-0.396,0.088-0.541
		c0.238-0.865,0.737-1.574,1.335-2.22c0.235-0.245,0.497-0.472,0.749-0.71c0.366-0.355,0.738-0.705,1.099-1.066
		c0.28-0.279,0.271-0.289,0.06-0.604c-0.039-0.069-0.062-0.137-0.112-0.237c0.152,0,0.268,0,0.414,0
		c0.028-0.149,0.051-0.274,0.076-0.424c0.117-0.021,0.225-0.04,0.249-0.041c0.217-0.231,0.371-0.418,0.544-0.578
		c0.25-0.235,0.531-0.446,0.775-0.69c0.208-0.207,0.448-0.324,0.738-0.367c0.227-0.033,0.452-0.08,0.677-0.121
		c0.208-0.033,0.314-0.145,0.321-0.355c0.017-0.287,0.047-0.574,0.076-0.932c-0.176,0.063-0.284,0.092-0.381,0.138
		c-1.148,0.567-2.369,0.884-3.635,1.036c-0.913,0.102-1.838,0.12-2.756,0.018c-0.09-0.009-0.174-0.033-0.261-0.06
		c-0.878-0.313-1.756-0.622-2.631-0.933c-0.06-0.021-0.102-0.063-0.221-0.142c0.172-0.021,0.266-0.046,0.355-0.041
		c0.397,0.011,0.798,0.04,1.191,0.035c0.229,0,0.385,0.095,0.531,0.25c0.588,0.647,0.311,0.502,1.23,0.599
		c1.089,0.106,2.173,0.131,3.257-0.056c0.569-0.101,1.131-0.271,1.699-0.422c0.094-0.024,0.173-0.093,0.312-0.172
		c-0.349-0.245-0.745-0.229-1.07-0.425c0.123-0.108,0.245-0.065,0.361-0.028c0.235,0.069,0.445,0.037,0.662-0.084
		c0.485-0.253,1.005-0.29,1.53-0.17c0.573,0.131,1.142,0.282,1.708,0.43c0.325,0.084,0.325,0.093,0.505-0.174
		c0.209-0.3,0.412-0.604,0.649-0.953c-0.14-0.071-0.244-0.135-0.357-0.175c-0.472-0.155-0.951-0.309-1.418-0.458
		c-0.308-0.103-0.362-0.078-0.498,0.226c-0.05,0.112-0.109,0.221-0.208,0.416c-0.37-0.656-0.746-1.203-1.089-1.869
		c0.293,0,0.515-0.008,0.733,0.004c0.287,0.01,0.421,0.021,0.448-0.36c0.013-0.138,0.08-0.274,0.09-0.411
		c0.028-0.613,0.292-1.085,0.754-1.482c0.325-0.291,0.588-0.643,0.878-0.969c0.071-0.08,0.125-0.174,0.163-0.307
		c-0.691,0.121-1.335,0.386-2.055,0.48c0-0.127-0.016-0.203,0.003-0.273c0.08-0.332,0.173-0.666,0.257-1.004
		c0.035-0.137,0.106-0.227,0.266-0.217c0.305,0.023,0.617,0.017,0.92,0.065c0.193,0.035,0.404,0.12,0.546,0.25
		c0.196,0.177,0.383,0.228,0.628,0.156c0.104-0.031,0.214-0.052,0.375-0.087c-0.284-0.473-0.688-0.774-1.014-1.202
		c0.221-0.024,0.347,0.089,0.477,0.164c0.429,0.239,0.886,0.315,1.372,0.252c0.296-0.039,0.32-0.08,0.266-0.367
		c-0.047-0.25-0.092-0.503-0.135-0.753c-0.001-0.021,0.018-0.045,0.05-0.12c0.342,0.183,0.687,0.36,1.069,0.562
		c0.073-0.148,0.141-0.279,0.2-0.416c0.059-0.142,0.117-0.277,0.18-0.432c0.177,0.047,0.183,0.207,0.258,0.313
		c0.068,0.1,0.154,0.225,0.257,0.254c0.447,0.133,0.857,0.322,1.234,0.598c0.044,0.036,0.109,0.036,0.244,0.07
		c-0.104-0.316-0.161-0.59-0.281-0.836c-0.175-0.359-0.16-0.68,0.058-1.006c0.077-0.11,0.113-0.246,0.171-0.396
		c-0.483-0.16-0.954-0.021-1.451-0.17c0.424-0.453,0.966-0.67,1.439-1c-0.192-0.244-0.468-0.245-0.696-0.348
		c-0.228-0.104-0.465-0.188-0.746-0.301c0.147-0.23,0.397-0.25,0.584-0.354c0.191-0.11,0.396-0.198,0.638-0.313
		c-0.24-0.209-0.476-0.179-0.693-0.213c-0.315-0.058-0.638-0.076-0.941-0.158c-0.338-0.086-0.641-0.25-0.795-0.654
		c0.119-0.021,0.211-0.051,0.3-0.051c0.487,0.009,0.974,0.009,1.461,0.045c0.247,0.014,0.412-0.051,0.54-0.264
		c0.129-0.222,0.284-0.427,0.432-0.637c0.153-0.234,0.153-0.253-0.04-0.458c-0.374-0.401-0.749-0.805-1.126-1.209
		c-0.074-0.09-0.141-0.19-0.211-0.284c0.021-0.021,0.04-0.046,0.057-0.07c0.318,0.113,0.642,0.225,0.958,0.334
		c0.101,0.037,0.198,0.065,0.292,0.111c0.386,0.172,0.366,0.125,0.552-0.256c0.05-0.091,0.069-0.189,0.107-0.285
		c0.132-0.361,0.132-0.709-0.092-1.025c-0.122-0.18-0.113-0.313,0.004-0.486c0.377-0.547,0.266-0.579,0.934-0.381
		c0.196,0.061,0.392,0.111,0.591,0.158c0.057,0.018,0.111,0.006,0.273,0.006c-0.166-0.182-0.268-0.307-0.384-0.41
		c-0.176-0.152-0.219-0.311-0.129-0.543c0.125-0.332,0.209-0.682,0.291-1.033c0.102-0.434,0.036-0.839-0.281-1.177
		c-0.312-0.339-0.626-0.677-0.938-1.009c-0.227-0.234-0.218-0.28,0.054-0.457c0.062-0.043,0.132-0.078,0.191-0.125
		c0.104-0.074,0.156-0.17,0.093-0.299c-0.27-0.52-0.107-0.992,0.172-1.447c0.203-0.338,0.434-0.664,0.655-0.988
		c0.034-0.046,0.09-0.072,0.196-0.162c-0.041,1.045-0.262,1.969-0.768,2.863c0.134-0.003,0.199,0,0.256-0.012
		c0.747-0.168,1.496-0.338,2.243-0.512c0.302-0.068,0.302-0.074,0.231-0.384c-0.083-0.358-0.16-0.717-0.251-1.135
		c0.17-0.019,0.301-0.035,0.436-0.043c0.159-0.013,0.237,0.08,0.244,0.229c0.012,0.219,0.021,0.432,0.031,0.65
		c0.021,0.385,0.046,0.419,0.418,0.436c0.857,0.041,1.655,0.305,2.453,0.578c0.051,0.023,0.102,0.063,0.208,0.127
		c0-0.244,0-0.43,0-0.617c0-0.617-0.003-1.231,0-1.846c0-0.158-0.013-0.287-0.163-0.396c-0.329-0.241-0.636-0.508-0.966-0.747
		c-0.256-0.19-0.534-0.353-0.789-0.542c-0.414-0.297-0.567-0.733-0.52-1.211c0.04-0.445,0.142-0.885,0.249-1.315
		c0.035-0.12,0.19-0.223,0.305-0.312c0.221-0.17,0.477-0.307,0.687-0.485c0.188-0.164,0.236-0.384,0.086-0.622
		c-0.058-0.083-0.086-0.184-0.13-0.277c-0.101-0.248-0.266-0.426-0.532-0.513c-0.241-0.079-0.479-0.17-0.716-0.267
		c-0.094-0.034-0.189-0.084-0.267-0.145c-0.228-0.177-0.249-0.264-0.167-0.564c0.167-0.592,0.343-1.184,0.482-1.779
		c0.17-0.71,0.214-1.438-0.008-2.158c-0.022-0.071-0.055-0.164-0.032-0.222c0.19-0.396,0.277-0.859,0.717-1.089
		c0.557-0.296,1.008-0.71,1.314-1.261c0.127-0.232,0.206-0.496,0.312-0.741c0.088-0.202,0.012-0.347-0.15-0.46
		c-0.21-0.146-0.417-0.296-0.636-0.436c-0.521-0.332-0.886-0.768-1.071-1.385c-0.31-1.015-0.681-2.011-1.033-3.008
		c-0.096-0.271-0.092-0.53-0.026-0.792c0.196-0.767,0.398-1.532,0.606-2.299c0.209-0.763,0.357-1.538,0.436-2.329
		c0.12-1.25,0.239-2.496,0.439-3.736c0.206-1.31,0.613-2.56,1.439-3.637c0.084-0.11,0.134-0.277,0.134-0.418
		c0-4.117,0-8.239,0.005-12.361c0-0.259-0.067-0.437-0.264-0.595c-0.75-0.582-1.491-1.167-2.241-1.747
		c-0.156-0.122-0.321-0.235-0.522-0.374c-0.085,0.143-0.15,0.247-0.208,0.357c-0.159,0.276-0.169,0.29-0.482,0.225
		c-0.198-0.043-0.395-0.1-0.64-0.164c0.19-0.387,0.595-0.571,0.802-0.939c-0.532-0.498-1.143-0.875-1.618-1.405
		c0.017-0.03,0.031-0.057,0.048-0.081c0.168,0.07,0.341,0.136,0.507,0.207c0.396,0.176,0.804,0.336,1.19,0.54
		c0.636,0.326,1.148,0.805,1.538,1.41c0.122,0.182,0.254,0.281,0.488,0.304c0.438,0.049,0.869,0.155,1.314,0.235
		c0.083-0.207-0.033-0.311-0.105-0.418c-0.369-0.535-0.747-1.073-1.133-1.596c-0.501-0.693-0.975-1.403-1.354-2.183
		c-0.211-0.432-0.538-0.774-0.89-1.094c-0.241-0.211-0.502-0.397-0.729-0.623c-0.409-0.408-0.946-0.544-1.449-0.76
		c-0.181-0.079-0.295-0.19-0.353-0.369c-0.254-0.738-0.775-1.259-1.391-1.688c-0.335-0.239-0.692-0.445-1.042-0.648
		c-0.304-0.176-0.472-0.417-0.498-0.771c-0.02-0.253-0.06-0.499-0.094-0.744c0.138-0.14,0.253-0.036,0.361,0.009
		c0.772,0.313,1.423,0.804,1.985,1.408c0.151,0.159,0.313,0.311,0.437,0.489c0.157,0.241,0.378,0.259,0.6,0.188
		c0.305-0.1,0.622-0.195,0.881-0.368c0.604-0.406,1.181-0.853,1.77-1.283c0.154-0.116,0.14-0.262,0.079-0.412
		c-0.131-0.313-0.32-0.597-0.607-0.775c-0.324-0.204-0.662-0.389-1.005-0.551c-0.7-0.341-0.617-0.202-0.561-0.964
		c0.04-0.488,0.205-0.642,0.688-0.667C25.922,2.963,26,3.075,26.088,3.185c0.5,0.682,1.004,1.36,1.508,2.038
		c0.071,0.096,0.151,0.192,0.265,0.338c0.68-0.643,1.178-1.381,1.719-2.063c0.347,0.24,0.65,0.509,1.002,0.667
		c0.351,0.161,0.753,0.214,1.18,0.331c-0.544,0.985-1.092,1.978-1.886,2.805c0.312,0.558,0.832,0.743,1.459,0.53
		c0.171-0.058,0.333-0.132,0.497-0.207c0.138-0.067,0.267-0.059,0.393,0.036c0.116,0.083,0.231,0.164,0.347,0.239
		c0.164,0.104,0.24,0.248,0.275,0.438c0.042,0.271,0.121,0.537,0.192,0.853c0.273-0.125,0.486-0.222,0.702-0.323
		c0.326-0.15,0.326-0.15,0.588,0.116c0.396,0.384,0.787,0.771,1.189,1.148c0.176,0.164,0.276,0.35,0.327,0.585
		c0.084,0.386,0.198,0.767,0.301,1.151c0.07,0.254,0.136,0.305,0.381,0.228c0.622-0.206,1.21-0.021,1.812,0.082
		c0.559,0.1,0.92,0.401,1.256,0.837c0.939,1.206,2.031,2.266,3.207,3.24c0.909,0.762,1.854,1.494,2.782,2.228
		c0.307,0.244,0.324,0.239,0.622-0.004c0.22-0.182,0.444-0.358,0.673-0.539c0.023,0.021,0.049,0.037,0.078,0.057
		c-0.1,0.259-0.197,0.512-0.299,0.766c-0.165,0.412-0.171,0.417,0.19,0.689c0.679,0.521,1.338,1.078,2.057,1.539
		c0.965,0.625,1.979,1.185,2.973,1.759c4.399,2.534,8.805,5.06,13.202,7.595c4.041,2.32,8.077,4.639,12.115,6.958
		c0.098,0.057,0.199,0.105,0.324,0.17c0.339-0.337,0.685-0.663,1.009-1.002c0.52-0.544,1.121-0.994,1.732-1.426
		c0.548-0.384,1.082-0.793,1.637-1.18c0.197-0.14,0.402-0.26,0.613-0.374c0.438-0.244,0.874-0.475,1.313-0.707
		c0.034-0.021,0.07-0.044,0.104-0.05c0.844-0.189,1.586-0.643,2.409-0.889c0.905-0.275,1.819-0.525,2.728-0.778
		c0.136-0.039,0.272-0.065,0.429-0.105c-0.058-0.176-0.107-0.333-0.148-0.487c-0.039-0.149-0.07-0.299-0.084-0.45
		c-0.012-0.203-0.006-0.397-0.15-0.577c-0.064-0.086-0.051-0.246-0.048-0.368c0.008-0.438,0.026-0.874,0.046-1.307
		c0.002-0.128,0-0.249,0-0.396c-0.342,0.01-0.416,0.296-0.578,0.464c-0.173,0.185-0.335,0.375-0.533,0.604
		c-0.012-0.103-0.031-0.15-0.018-0.165c0.247-0.273,0.295-0.616,0.32-0.957c0.015-0.143,0.015-0.287,0.052-0.421
		c0.06-0.194-0.035-0.289-0.187-0.362c-0.44-0.207-0.886-0.397-1.316-0.613c-0.266-0.131-0.515-0.286-0.762-0.443
		c-0.101-0.064-0.175-0.166-0.282-0.275c0.267-0.101,0.419,0.048,0.584,0.121c0.457,0.198,0.895,0.443,1.36,0.6
		c0.283,0.098,0.603,0.079,0.908,0.079c0.176,0,0.245-0.169,0.286-0.316c0.074-0.242,0.136-0.486,0.239-0.728
		c0.316,0.44-0.045,0.938,0.143,1.402c0.256,0.06,0.465-0.015,0.6-0.253c0.104-0.175,0.193-0.362,0.281-0.546
		c0.076-0.157,0.129-0.328,0.313-0.418c0.121,0.132,0.075,0.268,0.058,0.402c-0.137,0.728-0.117,0.698,0.523,1.089
		c0.972,0.604,1.92,1.258,2.883,1.89c0.085,0.058,0.167,0.113,0.271,0.183c0.24-0.183,0.469-0.365,0.705-0.531
		c0.238-0.159,0.436-0.387,0.801-0.49c-0.024,0.15-0.03,0.243-0.055,0.331c-0.076,0.271-0.146,0.542-0.236,0.804
		c-0.069,0.198,0,0.314,0.145,0.424c0.443,0.338,0.924,0.604,1.445,0.78c0.675,0.227,1.359,0.447,2.043,0.643
		c0.936,0.265,1.814,0.657,2.677,1.115c0.765,0.411,1.542,0.789,2.318,1.182c0.228,0.116,0.442,0.27,0.685,0.325
		c0.536,0.119,1.073,0.04,1.553-0.219c0.451-0.238,0.885-0.517,1.306-0.801c0.188-0.126,0.319-0.143,0.512-0.017
		c0.759,0.493,1.574,0.843,2.455,1.041c0.446,0.1,0.894,0.199,1.339,0.292c0.227,0.047,0.316,0.12,0.344,0.385
		c0.022,0.229,0.043,0.458,0.037,0.688c0,0.225,0.103,0.368,0.307,0.433c0.228,0.07,0.463,0.174,0.695,0.174
		c0.496,0.006,0.992-0.039,1.487-0.074c0.327-0.022,0.66-0.076,0.985-0.104c0.08-0.009,0.168,0.008,0.326,0.025
		c-0.102,0.146-0.158,0.252-0.234,0.342c-0.232,0.292-0.482,0.567-0.572,0.939c-0.041,0.185-0.095,0.381-0.066,0.557
		c0.031,0.196-0.039,0.29-0.186,0.374c-0.218,0.134-0.439,0.25-0.645,0.405c-0.225,0.17-0.432,0.36-0.627,0.564
		c-0.209,0.219-0.305,0.496-0.315,0.802c-0.006,0.216,0.041,0.397,0.179,0.568c0.328,0.404,0.728,0.725,1.162,0.991
		c0.608,0.377,1.239,0.708,1.868,1.055c1,0.564,2,1.13,3.013,1.682c1.273,0.707,2.547,1.4,3.828,2.098
		c0.076,0.042,0.16,0.067,0.279,0.112c0.346-0.388,0.689-0.78,1.036-1.171c1.489-1.703,2.981-3.404,4.479-5.105
		c1.385-1.576,2.771-3.152,4.152-4.725c1.529-1.74,3.061-3.477,4.589-5.213c2.257-2.563,4.517-5.123,6.771-7.687
		c1.584-1.798,3.164-3.594,4.738-5.396c0.154-0.185,0.334-0.237,0.564-0.237c1.965,0.006,3.941-0.003,5.915,0.01
		c0.294,0,0.481-0.057,0.604-0.371c0.189-0.476,0.506-0.885,0.897-1.225c0.147-0.126,0.215-0.256,0.138-0.466
		c-0.263-0.734-0.293-1.496-0.324-2.262c-0.021-0.546-0.097-1.089-0.141-1.639c-0.014-0.068,0.006-0.146,0.012-0.226
		c0.24-0.051,0.41,0.059,0.565,0.19c0.409,0.342,0.577,0.802,0.618,1.315c0.035,0.457,0.039,0.914,0.046,1.375
		c0.003,1.134,0.442,2.103,1.112,2.987c0.016,0.02,0.039,0.03,0.09,0.061c0.057-0.021,0.148-0.041,0.224-0.079
		c0.298-0.168,0.593-0.348,0.894-0.512c0.15-0.08,0.215-0.192,0.25-0.357c0.24-1.21,0.442-2.431,0.508-3.665
		c0.039-0.713,0.027-1.429,0.011-2.145c-0.017-0.918,0.063-1.829,0.19-2.74c0.076-0.585,0.293-1.131,0.529-1.667
		c0.041-0.099,0.118-0.186,0.198-0.308c0.058,0.074,0.112,0.112,0.128,0.166c0.316,1.275,0.395,2.57,0.271,3.872
		c-0.06,0.591-0.16,1.179-0.31,1.762c-0.188,0.747-0.329,1.515-0.353,2.295c-0.008,0.46-0.031,0.918-0.051,1.375
		c0,0.073,0,0.145,0.072,0.253c0.124-0.161,0.262-0.319,0.374-0.481c0.417-0.586,0.81-1.176,1.222-1.761
		c0.401-0.583,0.814-1.162,1.224-1.749c0.539-0.777,0.997-1.597,1.396-2.459c0.11-0.239,0.186-0.262,0.424-0.175
		c0.064,0.028,0.138,0.061,0.205,0.094c0.297,0.135,0.308,0.175,0.158,0.449c-0.305,0.549-0.597,1.099-0.894,1.651
		c-0.46,0.854-0.899,1.713-1.378,2.56c-0.307,0.552-0.602,1.115-0.998,1.621c-0.398,0.509-0.692,1.098-1.036,1.646
		c-0.112,0.187-0.226,0.371-0.327,0.562c-0.023,0.047-0.038,0.106-0.074,0.223c0.116-0.043,0.188-0.052,0.241-0.091
		c0.923-0.643,1.905-1.186,2.905-1.704c0.449-0.229,0.884-0.504,1.328-0.761c0.422-0.249,0.66-0.665,0.918-1.061
		c0.238-0.366,0.492-0.717,0.939-0.854c0.094-0.028,0.194-0.049,0.291-0.048c0.125,0,0.201,0.079,0.153,0.204
		c-0.321,1.074-0.731,2.104-1.657,2.817c-0.295,0.232-0.64,0.425-0.994,0.557c-0.757,0.29-1.39,0.75-1.996,1.26
		c-0.066,0.055-0.113,0.146-0.195,0.261c0.338,0.036,0.576-0.1,0.82-0.186c0.543-0.204,1.076-0.451,1.619-0.667
		c0.137-0.052,0.299-0.086,0.439-0.065c0.429,0.065,0.852,0.155,1.273,0.257c0.164,0.041,0.315,0.133,0.51,0.219
		c-0.219,0.264-0.485,0.328-0.735,0.374c-0.474,0.094-0.959,0.129-1.438,0.193c-0.455,0.057-0.902,0.116-1.359,0.186
		c-0.119,0.02-0.232,0.08-0.377,0.132c0.389,0.982,0.228,1.775-0.742,2.329c0.23,0.487,0.458,0.957,0.789,1.36
		c0.074,0.089,0.211,0.155,0.324,0.174c0.304,0.042,0.611,0.05,0.91,0.084c0.137,0.015,0.263,0.052,0.455,0.088
		c-0.176,0.402-0.318,0.753-0.474,1.102c-0.06,0.128-0.19,0.172-0.327,0.146c-0.638-0.135-1.263-0.039-1.896,0.027
		c-0.246,0.03-0.314-0.025-0.354-0.28c-0.051-0.361-0.09-0.726-0.138-1.122c-0.446,0.044-0.863,0.075-1.279,0.128
		c-0.081,0.014-0.19,0.092-0.221,0.168c-0.231,0.428-0.44,0.863-0.644,1.305c-0.238,0.533-0.31,1.091-0.279,1.677
		c0.037,0.823-0.129,1.622-0.413,2.399c-0.017,0.041-0.058,0.076-0.103,0.131c-0.179-0.1-0.143-0.261-0.152-0.408
		c-0.059-0.646-0.118-1.295-0.184-1.941c-0.007-0.067-0.043-0.132-0.08-0.267c-0.177,0.25-0.248,0.47-0.302,0.703
		c-0.22,0.938-0.595,1.822-1.006,2.689c-0.019,0.042-0.06,0.077-0.103,0.126c-0.146-0.07-0.174-0.185-0.185-0.315
		c-0.054-0.62,0.024-1.224,0.185-1.822c0.133-0.516,0.273-1.028,0.42-1.543c-0.125-0.094-0.195-0.03-0.262,0.061
		c-0.082,0.126-0.154,0.267-0.246,0.384c-0.078,0.094-0.174,0.164-0.299,0.217c0.155-1.083,0.561-2.102,0.721-3.155
		c-0.201-0.09-0.256,0.025-0.321,0.121c-0.351,0.496-0.544,1.063-0.733,1.637c-0.205,0.655-0.433,1.302-0.671,1.947
		c-0.155,0.427-0.44,0.781-0.762,1.091c-0.054,0.055-0.144,0.084-0.235,0.138c-0.176-0.241-0.125-0.488-0.115-0.722
		c0.006-0.222,0.047-0.443,0.018-0.699c-0.045,0.046-0.113,0.085-0.135,0.14c-0.063,0.164-0.104,0.337-0.159,0.507
		c-0.187,0.588-0.367,1.174-0.748,1.669c-0.28,0.375-0.625,0.668-1.074,0.827c-0.058,0.015-0.116,0.01-0.205,0.015
		c0.19-1.043,0.774-1.9,1.065-2.901c-0.066,0.036-0.145,0.064-0.19,0.121c-0.237,0.277-0.458,0.576-0.702,0.854
		c-0.477,0.542-1.019,1.006-1.654,1.353c-0.155,0.092-0.307,0.228-0.436,0.366c-1.388,1.588-2.771,3.184-4.158,4.774
		c-1.615,1.844-3.242,3.689-4.859,5.533c-1.514,1.718-3.024,3.435-4.537,5.157c-1.375,1.566-2.75,3.131-4.125,4.697
		c-0.62,0.699-1.238,1.402-1.852,2.1c-0.065,0.079-0.125,0.161-0.222,0.285c0.304,0.183,0.597,0.378,0.894,0.537
		c0.607,0.318,1.227,0.626,1.846,0.935c0.126,0.064,0.298,0.119,0.209,0.295c-0.064,0.137-0.215,0.086-0.333,0.03
		c-0.269-0.13-0.537-0.246-0.8-0.381c-0.582-0.307-1.176-0.625-1.762-0.933c-0.34-0.18-0.343-0.179-0.601,0.12
		c-2.856,3.245-5.71,6.491-8.567,9.741c-2.289,2.605-4.578,5.201-6.869,7.805c-1.754,1.998-3.508,3.996-5.262,5.998
		c-3.148,3.568-6.291,7.14-9.439,10.713c-0.66,0.744-1.322,1.492-1.971,2.252c-0.227,0.267-0.508,0.385-0.836,0.385
		c-1.613,0.006-3.229,0.085-4.834-0.02c-1.613-0.104-3.221-0.02-4.83-0.069c-0.138-0.007-0.271,0-0.449,0c0-4.628,0-9.202,0-13.789
		c-0.494-0.123-0.953-0.235-1.464-0.36c0.07,0.498,0.205,0.957,0.07,1.5c-1.088-0.88-2.112-1.763-3.579-1.951
		c0.18-0.264,0.321-0.475,0.483-0.711c-0.575-0.308-1.125-0.603-1.72-0.925c-0.047,0.479-0.105,0.918-0.124,1.356
		c-0.005,0.125,0.091,0.263,0.162,0.381c0.291,0.467,0.732,0.781,1.188,1.074c0.366,0.231,0.748,0.438,1.105,0.685
		c1.008,0.696,1.828,1.562,2.349,2.685c0.343,0.738,0.472,1.508,0.235,2.313c-0.019,0.058-0.045,0.11-0.08,0.203
		c-0.101-0.062-0.191-0.101-0.264-0.16c-0.518-0.39-0.899-0.905-1.301-1.401c-0.387-0.479-0.753-0.98-1.201-1.393
		c-1.331-1.23-2.675-2.452-4.13-3.545c-0.653-0.494-1.258-1.044-1.863-1.602c-0.499-0.461-1.091-0.686-1.772-0.867
		c0.015,0.117,0.015,0.199,0.037,0.275c0.245,0.658,0.491,1.316,0.735,1.977c0.061,0.154,0.109,0.305,0.16,0.459
		c-0.021,0.015-0.044,0.023-0.068,0.035c-0.197-0.303-0.412-0.596-0.592-0.908c-0.192-0.346-0.493-0.495-0.871-0.598
		c-0.045,0.08-0.095,0.152-0.119,0.23c-0.312,1.197-0.631,2.4-0.923,3.604c-0.132,0.545-0.226,1.104-0.296,1.66
		c-0.073,0.565-0.237,1.1-0.478,1.611c-0.192,0.395-0.403,0.786-0.613,1.199c-0.229-0.133-0.296-0.301-0.284-0.506
		c0.063-1.002-0.071-1.994-0.197-2.981c-0.029-0.226,0.005-0.42,0.104-0.627c0.298-0.621,0.573-1.257,0.878-1.877
		c0.201-0.417,0.15-0.81-0.029-1.212c-0.225-0.508-0.565-0.917-1.008-1.232c-0.382-0.275-0.794-0.512-1.185-0.761
		c-0.283,0.151-0.406,0.338-0.418,0.625c-0.031,0.55-0.104,1.095-0.141,1.646c-0.04,0.606,0.005,1.197,0.232,1.772
		c0.099,0.233,0.094,0.481-0.022,0.707c-0.18,0.343-0.379,0.668-0.572,1c-0.085,0.146-0.209,0.115-0.335,0.069
		c-0.381-0.143-0.767-0.28-1.149-0.424c-0.069-0.024-0.144-0.033-0.278-0.068c0.014,0.197,0.027,0.355,0.047,0.513
		c0.06,0.402,0.106,0.81,0.177,1.216c0.134,0.754-0.157,1.26-0.815,1.644c-1.003,0.591-0.847,0.368-1.384,1.631
		c-0.138,0.317-0.258,0.64-0.379,0.963c-0.049,0.13-0.11,0.233-0.27,0.226c-0.15-0.006-0.266-0.043-0.353-0.188
		c-0.419-0.73-0.851-1.458-1.284-2.178c-0.148-0.246-0.126-0.498-0.055-0.743c0.104-0.405,0.253-0.802,0.385-1.202
		c0.048-0.143,0.096-0.283,0.153-0.469c-0.447-0.125-0.864-0.229-1.281-0.348c-0.473-0.148-0.954-0.281-1.421-0.465
		c-0.482-0.179-0.903-0.475-1.254-0.859c-0.044-0.041-0.097-0.08-0.171-0.141c-0.943,0.582-1.884,1.174-2.842,1.771
		c-0.036-0.112-0.062-0.204-0.099-0.338c-1.491,0.854-2.962,1.701-4.515,2.593c0.442,0.19,0.72,0.483,1.16,0.521
		c0.214,0.02,0.407,0.196,0.62,0.287c0.136,0.057,0.283,0.079,0.425,0.122c0.083,0.022,0.165,0.058,0.248,0.093
		c0.296,0.133,0.553,0.344,0.909,0.36c0.178,0.013,0.381,0.162,0.517,0.306c0.272,0.27,0.527,0.561,0.75,0.866
		c0.222,0.3,0.31,0.652,0.241,1.017c-0.015,0.111-0.1,0.231-0.19,0.305c-0.026,0.023-0.177-0.061-0.248-0.122
		c-0.892-0.737-1.814-1.423-2.896-1.851c-0.245-0.102-0.489-0.231-0.783-0.133c0,0.053-0.021,0.112,0,0.147
		c0.662,1.021,1.146,2.14,1.698,3.222c0.326,0.639,0.658,1.27,1.117,1.823c0.176,0.22,0.348,0.442,0.556,0.627
		c0.561,0.502,0.982,1.108,1.386,1.726c0.439,0.66,0.836,1.354,1.287,1.996c0.378,0.533,0.806,1.022,1.231,1.514
		c0.214,0.248,0.24,0.277,0.122,0.568c-0.087,0.215-0.163,0.428-0.256,0.646c-0.042,0.098-0.102,0.188-0.179,0.336
		c-0.109-0.104-0.189-0.162-0.246-0.238c-0.545-0.771-1.084-1.549-1.627-2.318c-0.138-0.196-0.284-0.394-0.438-0.586
		c-0.042-0.049-0.118-0.074-0.232-0.144c-0.042,0.149-0.09,0.267-0.097,0.381c-0.048,0.394-0.083,0.788-0.13,1.181
		c-0.029,0.281-0.134,0.332-0.376,0.203c-0.155-0.084-0.312-0.18-0.462-0.271c-0.253-0.155-0.271-0.265-0.066-0.479
		c0.219-0.246,0.446-0.481,0.672-0.731c0.056-0.063,0.098-0.144,0.144-0.208c-0.076-0.164-0.202-0.161-0.334-0.161
		c-0.521,0-1.044-0.008-1.571-0.008c-0.063-0.007-0.125,0-0.19-0.007c-0.304-0.049-0.355-0.131-0.295-0.44
		c0.137-0.634,0.266-1.272,0.411-1.907c0.065-0.275,0.012-0.502-0.156-0.723c-0.525-0.673-1.027-1.363-1.575-2.021
		c-0.361-0.436-0.748-0.861-1.233-1.181c-0.2,0.091-0.171,0.261-0.183,0.403c-0.051,0.535-0.081,1.07-0.142,1.604
		c-0.094,0.75-0.269,1.483-0.551,2.189c-0.025,0.068-0.057,0.138-0.1,0.205c-0.017,0.027-0.057,0.039-0.133,0.09
		c-0.08-0.107-0.171-0.206-0.23-0.321c-0.265-0.521-0.35-1.09-0.461-1.655c-0.109-0.539-0.167-1.096-0.423-1.593
		c-0.119-0.225-0.255-0.446-0.402-0.647c-0.058-0.07-0.19-0.084-0.29-0.125c-0.036,0.089-0.1,0.18-0.1,0.271
		c0.002,0.257,0.036,0.513,0.054,0.763c0.028,0.357,0.077,0.719,0.071,1.068c-0.005,0.396-0.094,0.762-0.542,0.99
		c-0.057-0.131-0.108-0.24-0.156-0.346c-0.188-0.432-0.355-0.875-0.571-1.297c-0.182-0.354-0.47-0.635-0.821-0.836
		c-0.073-0.039-0.182-0.029-0.278-0.039c0,0.082-0.025,0.172,0,0.246c0.577,1.799,0.854,3.657,1.083,5.525
		c0.104,0.842,0.182,1.682,0.267,2.52c0.015,0.135,0.005,0.264,0.005,0.461c-0.42-0.131-0.757-0.277-1.076-0.451
		c-0.094-0.053-0.139-0.235-0.173-0.362c-0.031-0.12-0.017-0.257-0.03-0.381c-0.005-0.125-0.065-0.205-0.186-0.261
		c-0.599-0.256-1.193-0.522-1.792-0.778c-0.074-0.035-0.162-0.032-0.316-0.056c0.184,0.437,0.345,0.814,0.513,1.219
		c-0.282,0.107-0.534,0.063-0.779,0.031c-0.155-0.016-0.13-0.16-0.1-0.272c0.065-0.224,0.125-0.444,0.184-0.666
		c0.013-0.047,0.007-0.097,0.017-0.215c-0.135,0.045-0.239,0.063-0.332,0.104c-0.351,0.158-0.691,0.324-1.043,0.484
		C45,93.578,44.87,93.601,44.71,93.649c-0.13-0.372-0.257-0.715-0.372-1.062c-0.021-0.059-0.035-0.125-0.047-0.188
		c-0.089-0.408-0.315-0.66-0.73-0.8c-0.715-0.231-1.412-0.515-2.123-0.771c-0.248-0.094-0.508-0.111-0.854-0.156
		c0.088,0.199,0.135,0.322,0.196,0.438c0.374,0.729,0.722,1.468,0.852,2.294c0.012,0.114,0.017,0.233,0.037,0.446
		c-0.213-0.114-0.361-0.158-0.463-0.253c-0.363-0.336-0.723-0.688-1.061-1.049c-0.295-0.311-0.604-0.59-0.999-0.764
		c-0.12-0.055-0.254-0.07-0.38-0.096c-0.021,0.023-0.04,0.051-0.063,0.08c0.056,0.098,0.104,0.213,0.168,0.307
		c0.22,0.313,0.458,0.619,0.663,0.939c0.148,0.23,0.223,0.488,0.015,0.797c-0.121-0.088-0.232-0.158-0.333-0.238
		c-0.365-0.307-0.766-0.559-1.226-0.699C37.757,92.807,37.598,92.805,37.337,92.875z M46.807,31.248
		c0.017,0.739-0.068,1.409-0.28,2.057c-0.033,0.098,0,0.226,0.017,0.336c0.139,0.754,0.324,1.506,0.405,2.265
		c0.222,2.099,0.122,4.188-0.35,6.252c-0.147,0.652-0.237,1.31-0.188,1.981c0.059,0.863,0.172,1.732,0.172,2.597
		c-0.003,0.677,0.201,1.214,0.647,1.691c0.16,0.17,0.193,0.371,0.184,0.601c-0.068,1.275-0.09,2.55-0.36,3.812
		c-0.29,1.307-0.201,2.646-0.11,3.977c0.091,1.479,0.195,2.961,0.031,4.447c-0.026,0.254-0.092,0.502-0.107,0.758
		c-0.035,0.742-0.04,1.483-0.093,2.228c-0.047,0.686-0.129,1.369-0.216,2.051c-0.03,0.215-0.138,0.416-0.207,0.625
		c-0.036-0.004-0.067-0.004-0.102-0.006c-0.034-0.127-0.085-0.256-0.1-0.389c-0.042-0.354-0.068-0.71-0.091-1.066
		c-0.08-0.992-0.108-1.996-0.552-2.922c-0.045-0.099-0.041-0.224-0.041-0.336c-0.015-0.973-0.028-1.941-0.04-2.916
		c0-0.096,0.012-0.187,0.021-0.295c0.346,0.049,0.486,0.418,0.837,0.43c0.027-0.5-0.107-0.955-0.238-1.404
		c-0.19-0.666-0.421-1.316-0.603-1.979c-0.211-0.758-0.33-1.529-0.093-2.31c0.016-0.061,0.038-0.122,0.041-0.189
		c0.006-0.141-0.14-0.326-0.297-0.354c-0.186-0.037-0.188,0.121-0.229,0.238c-0.095,0.291-0.185,0.585-0.296,0.873
		c-0.412,1.073-0.841,2.139-1.253,3.212c-0.463,1.211-0.814,2.451-0.84,3.76c-0.013,0.43-0.134,0.805-0.387,1.141
		c-0.207,0.277-0.43,0.547-0.646,0.81c-0.291,0.354-0.507,0.741-0.583,1.192c-0.165,0.973-0.316,1.945-0.474,2.918
		c-0.007,0.064,0.022,0.138,0.042,0.271c0.664-0.174,1.306-0.347,1.947-0.517c0.007,0.021,0.016,0.047,0.026,0.074
		c-0.055,0.041-0.107,0.09-0.167,0.121c-0.477,0.252-0.944,0.506-1.424,0.744c-0.228,0.109-0.327,0.256-0.338,0.506
		c-0.017,0.482-0.021,0.975-0.11,1.453c-0.116,0.65,0.082,1.129,0.591,1.536c0.241,0.194,0.438,0.45,0.658,0.687
		c-0.278,0.375-0.775,0.431-1.071,0.857c0.431,0.008,0.776,0.014,1.182,0.021c-0.185,0.246-0.432,0.221-0.572,0.34
		c-0.54,0.472-0.983,1.029-1.044,1.764c-0.059,0.671,0,1.352,0.007,2.031c0,0.125,0.009,0.24,0.022,0.412
		c0.156-0.08,0.272-0.131,0.377-0.191c2.35-1.354,4.696-2.707,7.054-4.055c8.028-4.619,16.052-9.233,24.081-13.846
		c0.202-0.115,0.401-0.23,0.598-0.348c0.122-0.064,0.218-0.154,0.181-0.305c-0.05-0.184-0.125-0.357-0.165-0.539
		c-0.091-0.4-0.179-0.809-0.263-1.215c-0.048-0.221-0.093-0.44-0.128-0.663c-0.069-0.407-0.183-0.817-0.188-1.228
		c-0.025-1.737-0.009-3.478-0.009-5.218c0-0.103-0.006-0.204,0.014-0.305c0.058-0.346,0.131-0.689,0.197-1.033
		c0.096-0.452,0.191-0.905,0.292-1.36c0.1-0.447,0.206-0.895,0.31-1.352c-7.358-4.229-14.677-8.438-22.026-12.659
		c-0.03,0.149-0.052,0.248-0.082,0.391C49.19,32.881,48.17,31.876,46.807,31.248z M98.791,49.706
		c1.611,0.93,3.217,1.854,4.865,2.802c-0.171,0.106-0.271,0.176-0.383,0.237c-1.393,0.804-2.787,1.615-4.188,2.405
		c-0.217,0.128-0.305,0.259-0.305,0.512c0.01,3.379,0.008,6.756,0.008,10.131c0,0.084,0.016,0.17,0.024,0.262
		c0.289-0.098,0.56-0.172,0.81-0.287c0.402-0.18,0.799-0.373,1.187-0.587c0.461-0.257,0.931-0.513,1.354-0.823
		c0.604-0.436,1.176-0.914,1.746-1.391c0.297-0.252,0.567-0.533,0.815-0.838c0.323-0.383,0.614-0.799,0.918-1.205
		c0.301-0.402,0.606-0.803,0.873-1.23c0.231-0.375,0.416-0.779,0.606-1.18c0.307-0.664,0.588-1.34,0.813-2.039
		c0.121-0.385,0.191-0.777,0.277-1.163c0.064-0.283,0.164-0.569,0.168-0.85c0.018-1.483,0.009-2.97,0.007-4.453
		c0-0.124-0.035-0.25-0.063-0.371c-0.08-0.333-0.222-0.658-0.234-0.99c-0.016-0.28-0.127-0.511-0.198-0.759
		c-0.063-0.246-0.165-0.481-0.259-0.716c-0.098-0.252-0.202-0.507-0.313-0.759c-0.136-0.315-0.257-0.635-0.421-0.935
		c-0.197-0.366-0.436-0.711-0.646-1.072c-0.377-0.647-0.844-1.225-1.324-1.798c-0.271-0.326-0.555-0.647-0.861-0.939
		c-0.345-0.332-0.711-0.642-1.093-0.933c-0.372-0.281-0.765-0.534-1.153-0.799c-0.177-0.121-0.352-0.243-0.533-0.35
		c-0.336-0.201-0.666-0.417-1.021-0.583c-0.489-0.23-0.997-0.426-1.494-0.634c-0.146-0.058-0.285-0.121-0.433-0.155
		c-0.448-0.122-0.904-0.221-1.353-0.341c-0.546-0.142-1.088-0.227-1.653-0.216c-1.008,0.028-2.02,0.009-3.029,0.009
		c-0.104,0-0.213-0.02-0.309,0.01c-0.658,0.167-1.349,0.185-1.996,0.416c-0.526,0.189-1.094,0.269-1.592,0.512
		c-0.512,0.247-1.084,0.354-1.565,0.673c-0.295,0.192-0.616,0.339-0.909,0.533c-0.38,0.251-0.745,0.524-1.114,0.791
		c-0.264,0.19-0.513,0.39-0.801,0.607c0.132,0.083,0.213,0.142,0.294,0.189c2.755,1.582,5.503,3.16,8.249,4.749
		c0.23,0.133,0.411,0.123,0.643,0.025c1.746-0.726,3.494-1.443,5.246-2.164c0.096-0.041,0.205-0.069,0.342-0.113
		C98.791,45.863,98.791,47.778,98.791,49.706z M123.237,46.25c-0.756-0.458-1.442-0.896-2.153-1.298
		c-0.232-0.136-0.517-0.241-0.787-0.267c-0.66-0.063-1.328-0.083-1.981-0.098c-0.603-0.015-1.205,0.01-1.81-0.01
		c-0.584-0.017-1.158-0.121-1.662-0.468c-0.143-0.101-0.297-0.187-0.455-0.276c-0.067-0.036-0.146-0.058-0.276-0.11
		c0.042,0.106,0.054,0.15,0.072,0.192c0.204,0.504,0.409,1.003,0.599,1.515c0.188,0.506,0.348,1.022,0.502,1.537
		c0.102,0.352,0.17,0.706,0.244,1.064c0.055,0.254,0.068,0.521,0.137,0.775c0.113,0.417,0.174,0.841,0.18,1.267
		c0.021,1.37,0.012,2.735,0.012,4.103c0,0.119,0.006,0.235,0.014,0.354c0.022,0.006,0.053,0.015,0.076,0.019
		C118.362,51.797,120.779,49.045,123.237,46.25z M48.735,92.833c0.039-0.104,0.052-0.127,0.046-0.151
		c-0.194-1.038-0.388-2.082-0.589-3.121c-0.045-0.212-0.181-0.358-0.355-0.481c-0.472-0.324-0.939-0.662-1.411-0.994
		c-0.085-0.06-0.189-0.094-0.354-0.174c0.011,0.406,0.096,0.723,0.139,1.047c0.041,0.317,0.162,0.635,0.142,0.977
		c-0.09,0.009-0.146,0.033-0.187,0.01c-0.426-0.207-0.85-0.412-1.264-0.643c-0.162-0.082-0.168-0.195-0.037-0.338
		c0.052-0.055,0.118-0.1,0.181-0.146c0.182-0.144,0.367-0.276,0.54-0.424c0.213-0.185,0.208-0.289,0-0.455
		c-0.091-0.069-0.182-0.142-0.274-0.215c-0.33-0.276-0.529-0.617-0.486-1.063c0.005-0.057-0.015-0.117-0.025-0.193
		c-0.176,0.025-0.225,0.143-0.284,0.254c-0.062,0.123-0.116,0.254-0.182,0.379c-0.421,0.82-0.628,1.664-0.4,2.587
		c0.043,0.162,0.011,0.354-0.031,0.522c-0.04,0.166-0.137,0.326-0.216,0.51c0.221,0.078,0.446,0.172,0.679,0.238
		c0.778,0.201,1.524,0.49,2.247,0.856C47.306,92.164,48.012,92.483,48.735,92.833z M79.253,49.868
		c-0.015,0.134-0.03,0.192-0.03,0.252c0,1.47,0,2.938,0.01,4.406c0,0.185,0.065,0.362,0.111,0.588
		c1.512-0.873,2.98-1.711,4.517-2.596C82.304,51.624,80.805,50.763,79.253,49.868z M84.417,63.583
		c1.402,1.074,2.819,1.973,4.472,2.502c0-1.687,0-3.346,0-5.074C87.379,61.878,85.905,62.723,84.417,63.583z M39.633,96.833
		c-0.044-0.094-0.063-0.146-0.091-0.183c-0.486-0.522-0.969-1.06-1.467-1.571c-0.104-0.103-0.283-0.166-0.438-0.188
		c-0.439-0.067-0.886-0.108-1.332-0.149c-0.079-0.005-0.161,0.018-0.277,0.041c0.268,0.426,0.655,0.713,0.911,1.114
		c-0.377,0.117-1.136,0.117-1.386,0.009c0.009-0.328,0.347-0.563,0.29-0.919c-0.256-0.065-0.521-0.09-0.741-0.196
		c-0.208-0.104-0.369-0.306-0.555-0.465c-0.015,0.026-0.045,0.045-0.048,0.061c-0.031,0.814,0.088,1.572,0.698,2.195
		c0.197,0.192,0.354,0.272,0.62,0.271c1.126-0.011,2.251-0.005,3.373-0.005C39.328,96.847,39.459,96.833,39.633,96.833z
		 M65.324,74.555c0.634,0.463,0.677,0.463,1.147-0.003c0.406-0.405,0.893-0.692,1.46-0.79c0.369-0.07,0.76-0.063,1.14-0.068
		c0.182-0.002,0.326-0.017,0.429-0.177c0.341-0.527,0.684-1.049,1.024-1.577c0.068-0.106,0.104-0.239,0.154-0.36
		c-0.022-0.021-0.04-0.043-0.061-0.064C68.866,72.522,67.11,73.528,65.324,74.555z M28.505,7.453
		c-0.166-0.015-0.276-0.039-0.387-0.03c-1.009,0.102-1.009,0.102-1.866,0.677c-0.201,0.135-0.395,0.275-0.594,0.421
		c-0.062,0.048-0.108,0.122-0.196,0.224c0.186,0.085,0.326,0.164,0.479,0.214c0.72,0.24,1.413,0.075,2.099-0.147
		c0.08-0.03,0.183-0.121,0.205-0.204C28.339,8.251,28.41,7.891,28.505,7.453z M34.239,96.828c-0.012-0.076-0.006-0.105-0.016-0.123
		c-0.4-0.701-0.718-1.445-0.985-2.201c-0.021-0.07-0.096-0.133-0.181-0.242c-0.407,0.863-0.27,1.713-0.226,2.566
		C33.324,96.828,33.765,96.828,34.239,96.828z M42.753,90.199c0-0.605,0-1.16,0-1.746c-0.479-0.023-0.91-0.056-1.341-0.058
		c-0.096-0.003-0.231,0.063-0.283,0.142c-0.105,0.153-0.159,0.332-0.233,0.5C41.538,89.437,42.144,89.812,42.753,90.199z
		 M38.226,13.222c-0.292,0.165-0.528,0.292-0.754,0.427c-0.083,0.055-0.178,0.128-0.211,0.214c-0.08,0.213-0.126,0.436-0.18,0.659
		c-0.025,0.128,0.037,0.214,0.157,0.27c0.402,0.186,1.292,0.042,1.582-0.275c0.056-0.061,0.085-0.203,0.049-0.266
		C38.675,13.915,38.456,13.591,38.226,13.222z M80.341,70.852c-0.406-0.853-2.859-2.3-3.854-2.272
		C77.655,69.602,78.967,70.278,80.341,70.852z M30.226,42.739c-0.853,0.763-0.877,2.117,0,2.483
		C30.226,44.407,30.226,43.606,30.226,42.739z M31.949,96.821c0.014-0.024,0.028-0.047,0.04-0.069
		c-0.253-0.215-0.509-0.43-0.805-0.686c-0.161,0.264-0.294,0.479-0.462,0.755C31.186,96.821,31.568,96.821,31.949,96.821z
		 M40.513,88.804c-0.097-0.182-0.074-0.379-0.29-0.256c-0.027,0.014-0.031,0.058-0.051,0.101c0.046,0.033,0.08,0.067,0.125,0.084
		C40.342,88.751,40.383,88.764,40.513,88.804z"/>
	<path fill="#353A3D" d="M91.115,103.333c-3.47,0-6.894,0-10.343,0c-0.014-0.139-0.029-0.246-0.029-0.361
		c-0.004-1.172,0.021-2.354-0.008-3.53c-0.033-1.341,1.151-2.608,2.614-2.604c3.287,0.029,6.568,0.012,9.863,0.012
		c0.092,0,0.189,0.02,0.377,0.033c-0.186,0.104-0.289,0.168-0.396,0.222c-1.439,0.724-2.88,1.437-4.316,2.168
		c-0.246,0.11-0.477,0.166-0.736,0.166c-1.446-0.006-2.894-0.004-4.337-0.004c-0.137,0-0.277,0-0.443,0c0,0.444,0,0.847,0,1.295
		c3.443,0,6.877,0,10.332,0c0.013,0.128,0.026,0.216,0.026,0.304c0.003,1.19,0.009,2.383-0.002,3.564
		c-0.012,1.195-0.743,2.193-1.838,2.515c-0.26,0.067-0.531,0.112-0.793,0.117c-3.314,0.004-6.626,0.001-9.943,0
		c-0.07,0-0.142-0.005-0.301-0.017c0.139-0.094,0.199-0.145,0.27-0.18c1.522-0.758,3.042-1.521,4.568-2.273
		c0.161-0.082,0.365-0.123,0.541-0.125c1.477-0.012,2.946-0.006,4.42-0.006c0.138,0,0.273,0,0.46,0
		C91.134,104.203,91.115,103.8,91.115,103.333z"/>
	<path fill="#353A3D" d="M58.198,102.333c0.426-0.151,0.638,0.056,0.85,0.342c-0.188,0.355-0.363,0.719-0.573,1.068
		c-0.188,0.315-0.276,0.637-0.282,1.014c-0.028,1.373-1.162,2.451-2.579,2.471c-1.255,0.01-2.505,0.001-3.766,0.001
		c-1.312,0-2.629-0.001-3.944,0c-0.665,0-1.265-0.188-1.772-0.624c-0.592-0.516-0.898-1.176-0.9-1.958
		c-0.009-1.739-0.009-3.478-0.004-5.22c0.004-1.491,1.267-2.594,2.592-2.586c2.599,0.025,5.196,0.029,7.791-0.004
		c1.379-0.01,2.651,1.229,2.598,2.625c-0.029,0.807-0.009,1.611-0.009,2.418C58.198,102.005,58.198,102.136,58.198,102.333z
		 M49.755,99.511c-0.322-0.105-1.605-0.108-1.906-0.012c0,1.692,0,3.39,0,5.103c2.594,0,5.154,0,7.736,0c0-1.714,0-3.425,0-5.122
		c-0.453-0.079-4.867-0.061-5.172,0.023c0,0.459,0,0.927,0,1.457c-0.496-0.224-0.939-0.405-1.306-0.771
		C49.344,99.937,49.548,99.731,49.755,99.511z"/>
	<path fill="#353A3D" d="M150.402,96.847c1.311,0,2.609-0.014,3.911,0.005c1.205,0.015,2.228,0.853,2.481,2.017
		c0.043,0.194,0.054,0.407,0.054,0.611c0.007,1.697-0.022,3.4,0.019,5.104c0.027,1.319-1.07,2.653-2.654,2.647
		c-2.561-0.017-5.11,0.002-7.674-0.004c-1.537-0.005-2.649-1.104-2.658-2.632c-0.01-1.719-0.01-3.428,0-5.146
		c0.009-1.223,0.818-2.258,1.965-2.527c0.234-0.057,0.479-0.049,0.724-0.074c0.013,0,0.022,0,0.035,0
		C147.873,96.847,149.136,96.847,150.402,96.847L150.402,96.847z M146.505,104.602c2.586,0,5.146,0,7.707,0
		c0.08-0.416,0.064-4.853-0.012-5.131c-0.488-0.074-7.425-0.052-7.695,0.022C146.505,101.192,146.505,102.888,146.505,104.602z"/>
	<path fill="#353A3D" d="M127.451,99.643c0,1.642,0,3.282,0,4.952c2.592,0,5.156,0,7.723,0c0.084-0.258,0.104-4.639,0.019-5.159
		c-1.137-0.011-2.282,0-3.429-0.004c-1.139-0.002-2.273,0-3.417,0c-1.149,0-2.296,0-3.474,0c0-0.87,0-1.709,0-2.585
		c0.147,0,0.272,0,0.397,0c3.302,0,6.603,0.005,9.897-0.004c0.813-0.002,1.473,0.289,2.006,0.88
		c0.423,0.467,0.648,1.012,0.648,1.644c0,1.071,0,2.145,0,3.221c0,0.677-0.018,1.357,0.004,2.035
		c0.043,1.305-1.064,2.608-2.611,2.605c-3.352-0.001-6.699,0-10.055-0.001c-0.084,0-0.173-0.017-0.279-0.021
		c-0.012-0.11-0.03-0.211-0.03-0.306c-0.007-0.681-0.007-1.356,0-2.038c0-0.133,0.032-0.281,0.087-0.402
		c0.781-1.58,1.574-3.158,2.363-4.733c0.021-0.031,0.051-0.06,0.074-0.097C127.394,99.63,127.419,99.641,127.451,99.643z"/>
	<path fill="#353A3D" d="M123.109,97.044c0,3.375,0,6.748,0,10.152c-0.121,0.012-0.23,0.029-0.342,0.029
		c-3.325,0.001-6.656-0.005-9.98,0.004c-1.586,0.002-2.664-1.298-2.646-2.65c0.036-2.441,0.013-4.885,0.013-7.326
		c0-0.117,0-0.23,0-0.338c0.297-0.082,2.049-0.096,2.59-0.024c0.004,0.495,0.006,1.002,0.006,1.51c0.006,0.504,0,1.021,0,1.531
		c0,0.522,0,1.045,0,1.573c0,0.511,0,1.023,0,1.533c0,0.508,0,1.021,0,1.557c2.592,0,5.148,0,7.75,0
		c0.014-0.105,0.031-0.217,0.031-0.325c0-0.651-0.007-1.306,0.006-1.961c0-0.156,0.022-0.334,0.098-0.476
		c0.763-1.547,1.537-3.092,2.313-4.629c0.029-0.064,0.068-0.123,0.105-0.184C123.078,97.031,123.091,97.041,123.109,97.044z"/>
	<path fill="#353A3D" d="M95.443,96.865c4.342,0,8.622,0,12.9,0c0.078,0.271,0.105,1.965,0.031,2.565c-1.697,0-3.4,0-5.133,0
		c0,2.575,0,5.086,0,7.698c-0.101-0.133-0.154-0.188-0.189-0.258c-0.773-1.539-1.551-3.082-2.313-4.627
		c-0.066-0.146-0.098-0.313-0.101-0.479c-0.009-0.753-0.007-1.508-0.007-2.309c-0.442-0.049-0.873-0.018-1.301-0.025
		c-0.42-0.002-0.847,0-1.265,0c-0.437,0-0.868,0-1.31,0c-0.416,0-0.84,0-1.315,0C95.425,98.574,95.434,97.735,95.443,96.865z"/>
	<path fill="#353A3D" d="M60.133,107.091c0-2.534,0-5.051,0-7.561c0.906,1.633,1.707,3.313,2.584,5.002
		c0.126-0.117,0.222-0.199,0.308-0.281c1.701-1.633,3.394-3.271,5.089-4.899c0.211-0.205,0.426-0.408,0.645-0.601
		c0.083-0.074,0.185-0.139,0.294-0.178c1.688-0.545,3.374-1.092,5.066-1.639c0.035-0.008,0.073-0.012,0.164-0.025
		c-0.088,0.103-0.145,0.182-0.209,0.246c-1.682,1.652-3.349,3.313-5.038,4.945c-1.485,1.443-2.995,2.861-4.492,4.291
		c-0.497,0.477-1.073,0.754-1.788,0.725c-0.745-0.033-1.485-0.006-2.23-0.006C60.403,107.112,60.277,107.097,60.133,107.091z"/>
	<path fill="#353A3D" d="M142.085,107.057c-0.047-0.087-0.099-0.17-0.144-0.263c-0.75-1.496-1.5-2.989-2.241-4.494
		c-0.076-0.151-0.134-0.338-0.134-0.502c-0.013-1.557-0.01-3.098-0.006-4.647c0-0.088,0.019-0.17,0.022-0.278
		c0.857,0,1.69,0,2.555,0c0,3.397,0,6.785,0,10.168C142.121,107.046,142.109,107.05,142.085,107.057z"/>
	<path fill="#353A3D" d="M13.871,80.537c0.518,0.2,1,0.319,1.182,0.823c0.073,0.204,0.146,0.41,0.021,0.662
		c-0.107-0.06-0.206-0.084-0.267-0.149c-0.389-0.406-0.77-0.82-1.155-1.228c-0.129-0.146-0.1-0.269,0.039-0.396
		c0.179-0.172,0.349-0.365,0.568-0.597c-0.239-0.106-0.412-0.19-0.599-0.272c-0.31-0.135-0.615-0.295-0.748-0.621
		c-0.204-0.51-0.293-1.049,0.051-1.533c0.179-0.26,0.423-0.484,0.672-0.676c0.278-0.217,0.601-0.385,0.9-0.577
		c0.135-0.085,0.263-0.097,0.391,0.005c0.296,0.245,0.608,0.477,0.878,0.742c0.372,0.367,0.554,0.871,0.12,1.41
		c-0.552,0.67-1.126,1.322-1.686,1.988C14.132,80.238,14.022,80.36,13.871,80.537z"/>
	<path fill="#353A3D" d="M72.198,89.792c-0.123-0.617-0.155-1.17-0.139-1.732c0.028-0.873,0.166-1.729,0.453-2.559
		c0.175-0.512,0.244-1.035,0.273-1.578c0.027-0.473,0.077-0.943,0.147-1.407c0.051-0.337,0.23-0.624,0.457-0.877
		c0.048-0.048,0.114-0.079,0.208-0.14c0.028,0.109,0.067,0.192,0.073,0.274c0.146,1.349,0.27,2.703,0.174,4.06
		c-0.083,1.115-0.324,2.195-0.829,3.205C72.842,89.38,72.567,89.583,72.198,89.792z"/>
	<path fill="#353A3D" d="M67.771,89.119c-0.266,0.352-0.531,0.698-0.808,1.071c0.26,0.347,0.512,0.673,0.782,1.03
		c-0.344,0.012-0.611-0.129-0.982-0.502c-0.25-0.254-0.481-0.52-0.762-0.821c-0.376,0.685-0.728,1.328-1.105,2.009
		c-0.181-0.294-0.104-0.55-0.09-0.799c0.008-0.109,0.059-0.225,0.073-0.332c0.031-0.337,0.213-0.561,0.505-0.718
		c0.153-0.08,0.281-0.205,0.455-0.332c-0.221-0.203-0.408-0.368-0.591-0.545c-0.457-0.443-0.939-0.869-1.277-1.423
		c-0.209-0.354-0.315-0.654-0.324-0.99c0.073,0.027,0.145,0.043,0.201,0.074c0.977,0.646,1.777,1.459,2.317,2.505
		c0.135,0.259,0.195,0.271,0.438,0.131c0.235-0.131,0.472-0.256,0.723-0.358c0.12-0.051,0.259-0.054,0.39-0.074
		C67.732,89.065,67.751,89.093,67.771,89.119z"/>
	<path fill="#353A3D" d="M65.953,92.632c-0.216,0.117-0.385,0.228-0.563,0.304c-0.711,0.312-1.438,0.29-2.179,0.104
		c-0.671-0.166-1.299-0.453-1.89-0.813c-0.042-0.027-0.087-0.059-0.142-0.091c0.18-0.302,0.43-0.483,0.656-0.669
		c0.057-0.051,0.171-0.055,0.251-0.041c1.257,0.173,2.476,0.504,3.624,1.035C65.779,92.498,65.834,92.55,65.953,92.632z"/>
	<path fill="#353A3D" d="M13.443,98.923c-0.009,0.438-0.174,0.818-0.475,1.099c-0.489,0.446-1.02,0.851-1.542,1.25
		c-0.172,0.144-0.345,0.037-0.479-0.085c-0.25-0.227-0.335-0.542-0.406-0.85c-0.028-0.096,0.066-0.244,0.147-0.323
		c0.459-0.438,0.928-0.884,1.396-1.306c0.073-0.065,0.188-0.1,0.277-0.1c0.28,0,0.561,0.023,0.845,0.039
		C13.371,98.662,13.46,98.753,13.443,98.923z"/>
	<path fill="#353A3D" d="M62.898,80.696c0.251,0.714,0.541,1.425,0.672,2.179c0.069,0.438,0.116,0.879,0.149,1.326
		c0.021,0.309-0.054,0.371-0.362,0.418c-0.691,0.112-1.364-0.388-1.45-1.097c-0.014-0.08,0.006-0.183,0.052-0.246
		c0.46-0.688,0.647-1.459,0.768-2.263c0.015-0.11,0.054-0.219,0.079-0.321C62.837,80.692,62.866,80.692,62.898,80.696z"/>
	<path fill="#353A3D" d="M70.56,94.445c-1.285-0.515-2.684-0.818-3.83-1.886c0.167,0,0.248-0.021,0.321,0
		c0.307,0.09,0.616,0.175,0.913,0.291c0.19,0.077,0.365,0.081,0.55,0c0.298-0.132,0.58-0.125,0.879,0.017
		c0.347,0.166,0.722,0.27,1.045,0.465C70.868,93.596,70.9,93.984,70.56,94.445z"/>
	<path fill="#353A3D" d="M59.003,85.88c0.164,0.367,0.296,0.68,0.439,0.998c-0.204,0.156-0.402,0.058-0.606,0.066
		c-0.144-0.34,0.016-0.66-0.004-0.984c-0.021-0.313-0.04-0.631-0.063-1.004c0.182,0.065,0.304,0.104,0.417,0.156
		c0.709,0.346,1.423,0.688,2.19,0.885c0.076,0.02,0.179,0.088,0.195,0.154c0.046,0.217,0.06,0.443,0.095,0.75
		c-0.307-0.117-0.543-0.203-0.77-0.297c-0.531-0.223-1.061-0.449-1.588-0.674C59.237,85.903,59.147,85.908,59.003,85.88z"/>
	<path fill="#353A3D" d="M30.212,103.393c-0.074-0.11-0.132-0.172-0.165-0.249c-0.332-0.868-0.657-1.738-0.975-2.604
		c-0.091-0.242-0.086-0.492,0.04-0.709c0.054-0.095,0.185-0.181,0.292-0.193c0.083-0.008,0.216,0.099,0.256,0.186
		c0.521,1.059,0.838,2.158,0.636,3.357C30.284,103.238,30.252,103.292,30.212,103.393z"/>
	<path fill="#353A3D" d="M77.862,84.977c0.65-0.229,1.269-0.526,2.018-0.427c-0.036,0.132-0.061,0.211-0.084,0.297
		c-0.086,0.345-0.19,0.686-0.258,1.033c-0.029,0.193-0.093,0.328-0.269,0.429c-0.219,0.126-0.432,0.276-0.645,0.407
		c-0.062,0.039-0.134,0.056-0.271,0.107c0.05-0.302,0.072-0.552,0.133-0.796c0.045-0.182-0.002-0.312-0.126-0.446
		C78.188,85.404,77.972,85.257,77.862,84.977z"/>
	<path fill="#353A3D" d="M61.328,80.339c-0.073-0.457,0.085-0.84,0.299-1.211c0.066-0.109,0.156-0.154,0.29-0.1
		c0.414,0.16,0.824,0.32,1.231,0.479C63.047,80.171,62.243,80.541,61.328,80.339z"/>
	<path fill="#353A3D" d="M17.862,103.91c-0.1-0.32-0.054-0.591-0.023-0.847c0.012-0.073,0.123-0.147,0.197-0.207
		c0.053-0.036,0.118-0.051,0.179-0.067c0.275-0.088,0.55-0.181,0.874-0.289c0.023,0.271,0.049,0.508,0.059,0.738
		c0,0.057-0.05,0.135-0.095,0.157C18.672,103.593,18.271,103.737,17.862,103.91z"/>
	<path fill="#353A3D" d="M18.219,74.49c0.483,0.305,1.023,1.616,0.979,2.375c-0.222-0.104-0.447-0.455-0.703-1.105
		C18.215,75.044,18.168,74.822,18.219,74.49z"/>
	<path fill="#353A3D" d="M64.277,90.77c0.005,0.222-0.131,0.36-0.353,0.36c-0.295,0-0.607-0.284-0.619-0.569
		c-0.007-0.218,0.124-0.373,0.334-0.386C63.938,90.156,64.271,90.466,64.277,90.77z"/>
	<path fill="#353A3D" d="M14.417,83c0.19,0,0.488,0.338,0.474,0.528c-0.014,0.177-0.313,0.45-0.474,0.438
		c-0.18-0.012-0.446-0.32-0.449-0.516C13.966,83.259,14.224,82.996,14.417,83z"/>
	<path fill="#353A3D" d="M50.396,90.938c-0.578-0.583-0.573-1.086,0-1.804C50.396,89.737,50.396,90.306,50.396,90.938z"/>
	<path fill="#353A3D" d="M56.988,93.689c-0.222,0-0.341-0.096-0.341-0.27s0.308-0.483,0.482-0.485c0.148,0,0.385,0.297,0.375,0.474
		C57.496,93.583,57.292,93.696,56.988,93.689z"/>
	<path fill="#353A3D" d="M45.438,94.71c-0.035-0.051-0.123-0.125-0.132-0.215c-0.028-0.182,0.12-0.356,0.256-0.356
		c0.137,0,0.338,0.135,0.347,0.237C45.921,94.505,45.673,94.71,45.438,94.71z"/>
	<path fill="#353A3D" d="M49.529,62.302c-0.593-0.061-1.021-0.872-0.797-1.471C49.337,60.887,49.72,61.585,49.529,62.302z"/>
</g>
</svg>
